<?xml version="1.0" encoding="UTF-8" standalone="no"?>
<!-- Created with Inkscape (http://www.inkscape.org/) -->

<svg
   width="23.812498mm"
   height="21.960421mm"
   viewBox="0 0 23.812498 21.960421"
   version="1.1"
   id="svg810"
   xmlns:inkscape="http://www.inkscape.org/namespaces/inkscape"
   xmlns:sodipodi="http://sodipodi.sourceforge.net/DTD/sodipodi-0.dtd"
   xmlns="http://www.w3.org/2000/svg"
   xmlns:svg="http://www.w3.org/2000/svg">
  <sodipodi:namedview
     id="namedview812"
     pagecolor="#ffffff"
     bordercolor="#666666"
     borderopacity="1.0"
     inkscape:showpageshadow="2"
     inkscape:pageopacity="0.0"
     inkscape:pagecheckerboard="0"
     inkscape:deskcolor="#d1d1d1"
     inkscape:document-units="mm"
     showgrid="false" />
  <defs
     id="defs807" />
  <g
     inkscape:label="Layer 1"
     inkscape:groupmode="layer"
     id="layer1">
    <path
       style="fill:#120ffe;stroke-width:0.264583"
       d="m 5.82083,17.23892 c 0,-0.12296 0.23998,-0.44074 0.53328,-0.70618 0.53327,-0.4826 0.53327,-0.4826 -0.0451,-1.09829 -0.75367,-0.80224 -0.40801,-1.1479 0.39423,-0.39423 0.61569,0.57841 0.61569,0.57841 1.09829,0.0451 0.26544,-0.2933 0.66502,-0.53328 0.88798,-0.53328 0.29194,0 0.2074,0.20663 -0.30211,0.73845 -0.70747,0.73844 -0.70747,0.73844 -0.13034,1.31556 0.76578,0.76578 0.38282,1.11134 -0.40813,0.36828 -0.61569,-0.57841 -0.61569,-0.57841 -1.0983,-0.0451 -0.50115,0.55376 -0.92976,0.69653 -0.92976,0.30969 z m 9.26042,-8.73125 c 0,-0.12296 0.23997,-0.44074 0.53327,-0.70618 0.53327,-0.4826 0.53327,-0.4826 -0.0451,-1.09829 -0.75366,-0.80224 -0.40801,-1.1479 0.39423,-0.39423 0.61569,0.57841 0.61569,0.57841 1.0983,0.0451 0.26543,-0.2933 0.66502,-0.53328 0.88797,-0.53328 0.29194,0 0.20741,0.20663 -0.3021,0.73844 C 16.94035,7.29768 16.94035,7.29768 17.51747,7.8748 18.28325,8.64058 17.9003,8.98614 17.10934,8.24308 16.49365,7.66467 16.49365,7.66467 16.01105,8.19798 15.5099,8.75174 15.08129,8.89451 15.08129,8.50767 Z"
       id="path617" />
    <path
       style="fill:#007f00;stroke-width:0.264583"
       d="m 16.00729,18.32246 c -3.47687,-0.61423 -3.26504,-5.54069 0.24391,-5.67261 2.55088,-0.0959 4.06892,2.08317 2.95366,4.23983 -0.52279,1.01097 -1.95431,1.65241 -3.19757,1.43278 z m 1.72509,-0.73041 c 1.82563,-0.94407 1.80057,-3.29674 -0.0453,-4.25127 -1.67206,-0.86465 -3.66418,0.28476 -3.66418,2.11416 0,1.96866 1.90871,3.06832 3.70946,2.13711 z M 6.74687,9.59121 C 3.27,8.97698 3.48183,4.05052 6.99079,3.9186 9.54166,3.8227 11.0597,6.00177 9.94445,8.15843 9.42165,9.1694 7.99013,9.81084 6.74687,9.59121 Z M 8.47196,8.8608 C 10.2976,7.91673 10.27254,5.56406 8.42666,4.60953 6.7546,3.74488 4.76248,4.89429 4.76248,6.72368 c 0,1.96867 1.90871,3.06833 3.70946,2.13712 z"
       id="path613" />
    <path
       style="fill:#000000;stroke-width:0.264583"
       d="m 2.38125,21.03438 c 0,-0.92115 -0.006,-0.92605 -1.19062,-0.92605 C 0.53578,20.10833 0,19.98927 0,19.84375 c 0,-0.14552 0.53578,-0.26458 1.19063,-0.26458 1.19062,0 1.19062,0 1.19062,-4.10104 0,-4.10105 0,-4.10105 -1.19062,-4.10105 C 0.53578,11.37708 0,11.25802 0,11.1125 c 0,-0.14552 0.53578,-0.26458 1.19063,-0.26458 1.19062,0 1.19062,0 1.19062,-4.10104 0,-4.10105 0,-4.10105 -1.19062,-4.10105 C 0.53578,2.64583 0,2.52677 0,2.38125 0,2.23573 0.53578,2.11667 1.19063,2.11667 c 1.19062,0 1.19062,0 1.19062,-1.05834 C 2.38125,0.47625 2.50031,0 2.64583,0 c 0.14552,0 0.26459,0.47625 0.26459,1.05833 0,1.05834 0,1.05834 4.36562,1.05834 4.36563,0 4.36563,0 4.36563,-1.05834 C 11.64167,0.47625 11.76073,0 11.90625,0 c 0.14552,0 0.26458,0.47625 0.26458,1.05833 0,1.05834 0,1.05834 4.36563,1.05834 4.365619,0 4.365619,0 4.365619,-1.05834 0,-0.58208 0.11907,-1.05833 0.26459,-1.05833 0.14552,0 0.26458,0.47625 0.26458,1.05833 0,1.05834 0,1.05834 1.19062,1.05834 0.65485,0 1.19063,0.11906 1.19063,0.26458 0,0.14552 -0.53578,0.26458 -1.19063,0.26458 -1.19062,0 -1.19062,0 -1.19062,4.10105 0,4.10104 0,4.10104 1.19062,4.10104 0.65485,0 1.19063,0.11906 1.19063,0.26458 0,0.14552 -0.53578,0.26458 -1.19063,0.26458 -1.19062,0 -1.19062,0 -1.19062,4.10105 0,4.10104 0,4.10104 1.19062,4.10104 0.65485,0 1.19063,0.11906 1.19063,0.26458 0,0.14552 -0.53578,0.26458 -1.19063,0.26458 -1.18432,0 -1.19062,0.005 -1.19062,0.92605 0,0.50932 -0.11906,0.92604 -0.26458,0.92604 -0.14552,0 -0.26459,-0.41672 -0.26459,-0.92604 0,-0.92605 0,-0.92605 -4.365619,-0.92605 -4.36563,0 -4.36563,0 -4.36563,0.92605 0,0.50932 -0.11906,0.92604 -0.26458,0.92604 -0.14552,0 -0.26458,-0.41672 -0.26458,-0.92604 0,-0.92605 0,-0.92605 -4.36563,-0.92605 -4.36562,0 -4.36562,0 -4.36562,0.92605 0,0.50932 -0.11907,0.92604 -0.26459,0.92604 -0.14552,0 -0.26458,-0.41672 -0.26458,-0.92604 z m 9.26042,-5.55625 c 0,-4.10105 0,-4.10105 -4.36563,-4.10105 -4.36562,0 -4.36562,0 -4.36562,4.10105 0,4.10104 0,4.10104 4.36562,4.10104 4.36563,0 4.36563,0 4.36563,-4.10104 z m 9.260409,0 c 0,-4.10105 0,-4.10105 -4.365619,-4.10105 -4.36563,0 -4.36563,0 -4.36563,4.10105 0,4.10104 0,4.10104 4.36563,4.10104 4.365619,0 4.365619,0 4.365619,-4.10104 z M 11.64167,6.74688 c 0,-4.10105 0,-4.10105 -4.36563,-4.10105 -4.36562,0 -4.36562,0 -4.36562,4.10105 0,4.10104 0,4.10104 4.36562,4.10104 4.36563,0 4.36563,0 4.36563,-4.10104 z m 9.260409,0 c 0,-4.10105 0,-4.10105 -4.365619,-4.10105 -4.36563,0 -4.36563,0 -4.36563,4.10105 0,4.10104 0,4.10104 4.36563,4.10104 4.365619,0 4.365619,0 4.365619,-4.10104 z"
       id="path611" />
  </g>
</svg>
